<?xml version="1.0" encoding="UTF-8" standalone="no"?>
<!-- Created with Inkscape (http://www.inkscape.org/) -->

<svg
   width="64pt"
   height="64pt"
   viewBox="0 0 22.577778 22.577778"
   version="1.1"
   id="svg831"
   inkscape:version="1.1.2 (b8e25be833, 2022-02-05)"
   sodipodi:docname="Export - Unblash - 64px.svg.2022_11_25_22_15_20.0.svg"
   inkscape:export-filename="E:\Icon Design\TR Icon Design Project\Carlos - Icon Design Project\November\Asli Siap\Flat\05 - Contract Paper.png"
   inkscape:export-xdpi="576"
   inkscape:export-ydpi="576"
   xmlns:inkscape="http://www.inkscape.org/namespaces/inkscape"
   xmlns:sodipodi="http://sodipodi.sourceforge.net/DTD/sodipodi-0.dtd"
   xmlns="http://www.w3.org/2000/svg"
   xmlns:svg="http://www.w3.org/2000/svg"
   xmlns:rdf="http://www.w3.org/1999/02/22-rdf-syntax-ns#"
   xmlns:cc="http://creativecommons.org/ns#"
   xmlns:dc="http://purl.org/dc/elements/1.1/">
  <defs
     id="defs825">
    <pattern
       id="EMFhbasepattern"
       patternUnits="userSpaceOnUse"
       width="6"
       height="6"
       x="0"
       y="0" />
    <pattern
       id="EMFhbasepattern-9"
       patternUnits="userSpaceOnUse"
       width="6"
       height="6"
       x="0"
       y="0" />
    <pattern
       id="EMFhbasepattern-0"
       patternUnits="userSpaceOnUse"
       width="6"
       height="6"
       x="0"
       y="0" />
    <pattern
       id="EMFhbasepattern-7"
       patternUnits="userSpaceOnUse"
       width="6"
       height="6"
       x="0"
       y="0" />
    <pattern
       id="EMFhbasepattern-2"
       patternUnits="userSpaceOnUse"
       width="6"
       height="6"
       x="0"
       y="0" />
    <pattern
       id="EMFhbasepattern-98"
       patternUnits="userSpaceOnUse"
       width="6"
       height="6"
       x="0"
       y="0" />
    <pattern
       id="EMFhbasepattern-6"
       patternUnits="userSpaceOnUse"
       width="6"
       height="6"
       x="0"
       y="0" />
    <pattern
       id="EMFhbasepattern-01"
       patternUnits="userSpaceOnUse"
       width="6"
       height="6"
       x="0"
       y="0" />
    <pattern
       id="EMFhbasepattern-07"
       patternUnits="userSpaceOnUse"
       width="6"
       height="6"
       x="0"
       y="0" />
    <pattern
       id="EMFhbasepattern-8"
       patternUnits="userSpaceOnUse"
       width="6"
       height="6"
       x="0"
       y="0" />
    <pattern
       id="EMFhbasepattern-4"
       patternUnits="userSpaceOnUse"
       width="6"
       height="6"
       x="0"
       y="0" />
    <pattern
       id="EMFhbasepattern-40"
       patternUnits="userSpaceOnUse"
       width="6"
       height="6"
       x="0"
       y="0" />
    <pattern
       id="EMFhbasepattern-08"
       patternUnits="userSpaceOnUse"
       width="6"
       height="6"
       x="0"
       y="0" />
    <pattern
       id="EMFhbasepattern-04"
       patternUnits="userSpaceOnUse"
       width="6"
       height="6"
       x="0"
       y="0" />
    <pattern
       id="EMFhbasepattern-014"
       patternUnits="userSpaceOnUse"
       width="6"
       height="6"
       x="0"
       y="0" />
    <pattern
       id="EMFhbasepattern-27"
       patternUnits="userSpaceOnUse"
       width="6"
       height="6"
       x="0"
       y="0" />
    <pattern
       id="EMFhbasepattern-09"
       patternUnits="userSpaceOnUse"
       width="6"
       height="6"
       x="0"
       y="0" />
    <pattern
       id="EMFhbasepattern-5"
       patternUnits="userSpaceOnUse"
       width="6"
       height="6"
       x="0"
       y="0" />
    <pattern
       id="EMFhbasepattern-018"
       patternUnits="userSpaceOnUse"
       width="6"
       height="6"
       x="0"
       y="0" />
    <pattern
       id="EMFhbasepattern-3"
       patternUnits="userSpaceOnUse"
       width="6"
       height="6"
       x="0"
       y="0" />
  </defs>
  <sodipodi:namedview
     id="base"
     pagecolor="#ffffff"
     bordercolor="#666666"
     borderopacity="1.0"
     inkscape:pageopacity="0.0"
     inkscape:pageshadow="2"
     inkscape:zoom="5.3085938"
     inkscape:cx="42.666667"
     inkscape:cy="42.57248"
     inkscape:document-units="pt"
     inkscape:current-layer="layer1"
     showgrid="false"
     units="pt"
     inkscape:window-width="958"
     inkscape:window-height="1041"
     inkscape:window-x="-7"
     inkscape:window-y="0"
     inkscape:window-maximized="0"
     inkscape:pagecheckerboard="true"
     inkscape:showpageshadow="false"
     inkscape:object-paths="true"
     inkscape:snap-intersection-paths="true"
     inkscape:snap-smooth-nodes="true"
     inkscape:snap-midpoints="true"
     showguides="true"
     inkscape:snap-bbox="true"
     inkscape:bbox-nodes="true"
     inkscape:snap-nodes="false"
     inkscape:snap-global="true"
     inkscape:snap-others="false">
    <inkscape:grid
       type="xygrid"
       id="grid1378" />
    <sodipodi:guide
       position="0.97013831,21.607643"
       orientation="78.000048,0"
       id="guide1380"
       inkscape:locked="false" />
    <sodipodi:guide
       position="0.97013831,0.97013129"
       orientation="0,78.000005"
       id="guide1382"
       inkscape:locked="false" />
    <sodipodi:guide
       position="21.607639,0.97013129"
       orientation="-78.000048,0"
       id="guide1384"
       inkscape:locked="false" />
    <sodipodi:guide
       position="21.607639,21.607643"
       orientation="0,-78.000005"
       id="guide1386"
       inkscape:locked="false" />
  </sodipodi:namedview>
  <metadata
     id="metadata828">
    <rdf:RDF>
      <cc:Work
         rdf:about="">
        <dc:format>image/svg+xml</dc:format>
        <dc:type
           rdf:resource="http://purl.org/dc/dcmitype/StillImage" />
      </cc:Work>
    </rdf:RDF>
  </metadata>
  <g
     inkscape:label="Icon"
     inkscape:groupmode="layer"
     id="layer1"
     transform="translate(0,-274.42223)">
    <g
       id="g164779"
       style="display:inline;stroke-width:0.79488"
       transform="matrix(1.2580521,0,0,1.2580521,77.443509,-235.0893)">
      <path
         style="color:#000000;fill:#9a605a;stroke-width:0.79488;stroke-linecap:round;stroke-linejoin:round;-inkscape-stroke:none"
         d="m -52.179687,413.69141 a 0.26460996,0.26460996 0 0 0 -0.292969,0.24609 l -0.486328,7.95703 a 0.26460996,0.26460996 0 0 0 0.263672,0.28125 h 6.990234 a 0.26460996,0.26460996 0 0 0 0.263672,-0.26562 v -7.24219 a 0.26460996,0.26460996 0 0 0 -0.236328,-0.26172 z"
         id="path1111863" />
      <path
         id="path159760"
         style="color:#000000;fill:#66342d;fill-opacity:1;stroke-width:3.00427;stroke-linecap:round;stroke-linejoin:round;-inkscape-stroke:none"
         d="m -195.70898,508.89844 a 1.0001006,1.0001006 0 0 0 -1.04102,0.99804 v 26.20508 a 1.0001006,1.0001006 0 0 0 1.00391,1.00391 h 6.99804 a 1.0001006,1.0001006 0 0 0 1.00391,-1.00391 v -25.93945 a 1.0001006,1.0001006 0 0 0 -0.9668,-0.99805 z"
         transform="matrix(0.26458334,0,0,0.26458334,0,280.06666)" />
      <path
         id="path1315014"
         style="color:#000000;fill:#66342d;fill-opacity:1;stroke-width:0.79488;stroke-linecap:round;stroke-linejoin:round;-inkscape-stroke:none"
         d="m -45.970321,414.66775 v 7.24245 c 5.29e-4,0.14632 -0.117745,0.26532 -0.264067,0.26562 h 0.529166 c 0.146323,-2.7e-4 0.264626,-0.1193 0.264068,-0.26562 v -7.24245 z"
         sodipodi:nodetypes="ccccccc" />
      <path
         style="color:#000000;fill:#3a4d5c;stroke-width:0.79488;stroke-linecap:round;stroke-linejoin:round;-inkscape-stroke:none"
         d="m -50.998047,405.77148 c -0.435245,0 -0.792972,0.35773 -0.792969,0.79297 v 0.5293 a 0.26460996,0.26460996 0 0 0 0.263672,0.26562 h 4.763672 A 0.26460996,0.26460996 0 0 0 -46.5,407.09375 v -0.5293 c 3e-6,-0.43524 -0.357724,-0.79297 -0.792969,-0.79297 z"
         id="path1111869" />
      <path
         id="path1323204"
         style="color:#000000;fill:#143441;fill-opacity:1;stroke-width:0.79488;stroke-linecap:round;stroke-linejoin:round;-inkscape-stroke:none"
         d="m -50.997923,405.77165 c -0.355528,0 -0.659252,0.23862 -0.758608,0.56328 0.07267,-0.0222 0.149876,-0.0341 0.229441,-0.0341 h 3.705202 c 0.435245,0 0.792718,0.35747 0.792715,0.79271 v 0.26562 h 0.265618 a 0.26460996,0.26460996 0 0 0 0.263549,-0.26562 v -0.52916 c 3e-6,-0.43524 -0.357471,-0.79272 -0.792716,-0.79272 z" />
      <path
         style="color:#000000;fill:#e2f0fa;stroke-width:0.79488;stroke-linecap:round;stroke-linejoin:round;-inkscape-stroke:none"
         d="m -51.710937,407.92773 -7.884766,4.48633 a 0.26460996,0.26460996 0 0 0 -0.132813,0.23047 v 9.26563 a 0.26460996,0.26460996 0 0 0 0.263672,0.26562 h 7.960938 a 0.26460996,0.26460996 0 0 0 0.263672,-0.26562 l -0.07617,-13.75391 a 0.26460996,0.26460996 0 0 0 -0.394531,-0.22852 z"
         id="path1111875" />
      <path
         id="path1264891"
         style="color:#000000;fill:#c8dae5;fill-opacity:1;stroke-width:0.79488;stroke-linecap:round;stroke-linejoin:round;-inkscape-stroke:none"
         d="m -52.720815,408.71665 -7.007839,4.04678 v 1.83348 l 7.209377,-4.1615 z"
         sodipodi:nodetypes="ccccc" />
      <path
         style="color:#000000;fill:#3a4d5c;stroke-width:0.79488;stroke-linecap:round;stroke-linejoin:round;-inkscape-stroke:none"
         d="m -52.587891,407.62305 a 0.26460996,0.26460996 0 0 0 -0.132812,0.0352 l -7.386719,4.26563 c -0.426264,0.2461 -0.574226,0.79834 -0.328125,1.22461 l 0.212891,0.36914 a 0.26460996,0.26460996 0 0 0 0.361328,0.0976 l 7.341797,-4.23828 0.732422,0.0273 a 0.26460996,0.26460996 0 0 0 0.27539,-0.28711 l -0.109375,-1.25196 a 0.26460996,0.26460996 0 0 0 -0.263672,-0.24218 z"
         id="path1111881" />
      <path
         id="path157959"
         style="color:#000000;fill:#143441;fill-opacity:1;stroke-width:3.00427;stroke-linecap:round;stroke-linejoin:round;-inkscape-stroke:none"
         d="m -198.75781,482.10352 a 1.0001006,1.0001006 0 0 0 -0.50196,0.13281 l -2.48632,1.43555 v 6.93554 l 3.24804,-1.875 2.76758,0.10352 a 1.0001006,1.0001006 0 0 0 1.04102,-1.08594 l -0.41407,-4.73242 a 1.0001006,1.0001006 0 0 0 -0.99609,-0.91406 z"
         transform="matrix(0.26458334,0,0,0.26458334,0,280.06666)" />
      <path
         style="color:#000000;fill:#9a605a;stroke-width:0.79488;stroke-linecap:round;stroke-linejoin:round;-inkscape-stroke:none"
         d="m -55.230469,417.41211 c -0.289114,0 -0.529293,0.24018 -0.529297,0.5293 v 3.96875 a 0.26460996,0.26460996 0 0 0 0.263672,0.26562 h 2.117188 a 0.26460996,0.26460996 0 0 0 0.263672,-0.26562 v -3.96875 c -4e-6,-0.28912 -0.240183,-0.5293 -0.529297,-0.5293 z"
         id="path1111887" />
      <path
         id="path1185885"
         style="color:#000000;fill:#66342d;fill-opacity:1;stroke-width:0.79488;stroke-linecap:round;stroke-linejoin:round;-inkscape-stroke:none"
         d="m -54.173942,417.94145 c 0.289113,0 0.529678,0.24005 0.529683,0.52917 v 3.7052 h 0.265618 c 0.146121,-5.8e-4 0.264108,-0.1195 0.263549,-0.26562 v -3.96875 c -6e-6,-0.28912 -0.24057,-0.52917 -0.529683,-0.52917 h -1.585447 c -0.289113,0 -0.52968,0.24005 -0.529418,0.52917 z"
         sodipodi:nodetypes="scccccsscs" />
      <path
         style="color:#000000;fill:#70c2ef;stroke-width:0.79488;stroke-linecap:round;stroke-linejoin:round;-inkscape-stroke:none"
         d="m -51.585937,408.22266 a 0.26460996,0.26460996 0 0 0 -0.265625,0.26367 v 5.73828 a 0.26460996,0.26460996 0 0 0 0.269531,0.26367 l 5.878906,-0.082 a 0.26460996,0.26460996 0 0 0 0.261719,-0.26563 v -5.65429 a 0.26460996,0.26460996 0 0 0 -0.263672,-0.26367 z"
         id="path1111893" />
      <path
         id="path4928"
         style="color:#000000;fill:#3a4d5c;stroke-width:0.79488;stroke-linecap:round;stroke-linejoin:round;-inkscape-stroke:none"
         d="m -49.939589,408.68155 a 0.2645835,0.2645835 0 0 0 -0.263549,0.26562 v 4.76198 a 0.2645835,0.2645835 0 0 0 0.263549,0.26355 0.2645835,0.2645835 0 0 0 0.265617,-0.26355 v -4.76198 a 0.2645835,0.2645835 0 0 0 -0.265617,-0.26562 z m 1.058851,0 a 0.2645835,0.2645835 0 0 0 -0.265617,0.26562 v 4.76198 a 0.2645835,0.2645835 0 0 0 0.265617,0.26355 0.2645835,0.2645835 0 0 0 0.263549,-0.26355 v -4.76198 a 0.2645835,0.2645835 0 0 0 -0.263549,-0.26562 z" />
      <path
         id="path1316483"
         style="color:#000000;fill:#5aabdd;fill-opacity:1;stroke-width:0.79488;stroke-linecap:round;stroke-linejoin:round;-inkscape-stroke:none"
         d="m -51.585999,408.22266 a 0.26460996,0.26460996 0 0 0 -0.265618,0.26355 v 1.32395 h 5.617229 a 0.26460996,0.26460996 0 0 1 0.264067,0.26355 v 4.33618 l 0.267166,-0.004 a 0.26460996,0.26460996 0 0 0 0.262001,-0.26561 v -5.65444 a 0.26460996,0.26460996 0 0 0 -0.264068,-0.26355 z" />
      <path
         id="path1118199"
         style="color:#000000;fill:#143441;fill-opacity:1;stroke-width:0.79488;stroke-linecap:round;stroke-linejoin:round;-inkscape-stroke:none"
         d="m -52.720815,407.65836 -7.386628,4.26537 c -0.367773,0.21233 -0.528116,0.65276 -0.407212,1.04335 0.06413,-0.20978 0.203904,-0.39681 0.407212,-0.51418 l 7.386628,-4.26537 z"
         sodipodi:nodetypes="cccccc" />
      <path
         id="path1253657"
         style="color:#000000;fill:#66342d;fill-opacity:1;stroke-width:0.79488;stroke-linecap:round;stroke-linejoin:round;-inkscape-stroke:none"
         d="m -52.056772,416.3555 h 6.615618 v -1.68775 c -7.94e-4,-0.1347 -0.10273,-0.24727 -0.236678,-0.26148 l -3.944464,-0.43357 h -0.84646 z"
         sodipodi:nodetypes="ccccccc" />
      <path
         style="color:#000000;fill:#c8dae5;stroke-width:0.79488;stroke-linecap:round;stroke-linejoin:round;-inkscape-stroke:none"
         d="m -52.310547,414.71289 a 0.26460996,0.26460996 0 0 0 -0.27539,0.26367 v 6.9336 a 0.26460996,0.26460996 0 0 0 0.265625,0.26562 h 1.851562 a 0.26460996,0.26460996 0 0 0 0.265625,-0.26562 v -6.86329 a 0.26460996,0.26460996 0 0 0 -0.255859,-0.26367 z"
         id="path1111899" />
      <path
         style="color:#000000;fill:#3a4d5c;stroke-width:0.79488;stroke-linecap:round;stroke-linejoin:round;-inkscape-stroke:none"
         d="m -49.410156,415.29687 a 0.26460996,0.26460996 0 0 0 -0.263672,0.26368 v 1.05859 c 0,0.28912 0.238229,0.5293 0.527344,0.5293 h 2.117187 c 0.289115,0 0.529297,-0.24018 0.529297,-0.5293 v -1.05859 a 0.26460996,0.26460996 0 0 0 -0.263672,-0.26368 z"
         id="path629519" />
      <path
         id="path1259404"
         style="color:#000000;fill:#143441;fill-opacity:1;stroke-width:0.79488;stroke-linecap:round;stroke-linejoin:round;-inkscape-stroke:none"
         d="m -49.409904,415.29665 a 0.26460996,0.26460996 0 0 0 -0.264068,0.26407 v 0.79478 h 3.173966 v -0.79478 a 0.26460996,0.26460996 0 0 0 -0.263549,-0.26407 z" />
      <path
         style="color:#000000;fill:#70c2ef;fill-opacity:1;stroke-width:0.79488;stroke-linecap:round;stroke-linejoin:round;-inkscape-stroke:none"
         d="m -49.146484,415.82617 h 2.117187 v 0.79297 h -2.117187 z"
         id="path629525" />
      <path
         id="path1262024"
         style="color:#000000;fill:#5aabdd;fill-opacity:1;stroke-width:0.79488;stroke-linecap:round;stroke-linejoin:round;-inkscape-stroke:none"
         d="m -49.146355,415.82633 v 0.52917 h 2.117182 v -0.52917 z" />
      <path
         style="color:#000000;fill:#5aabdd;stroke-width:0.79488;stroke-linecap:round;stroke-linejoin:round;-inkscape-stroke:none"
         d="m -48.351571,415.82633 v 0.79272 h 0.529167 v -0.79272 z"
         id="path4902" />
      <path
         id="path1317777"
         style="color:#000000;fill:#143441;fill-opacity:1;stroke-width:0.79488;stroke-linecap:round;stroke-linejoin:round;-inkscape-stroke:none"
         d="m -49.939589,408.68155 c -0.146125,5.3e-4 -0.264121,0.11949 -0.263549,0.26562 v 0.86299 h 0.529166 v -0.86299 c 5.3e-4,-0.14694 -0.118684,-0.26619 -0.265617,-0.26562 z m 1.058851,0 c -0.146933,-5.3e-4 -0.266192,0.11868 -0.265617,0.26562 v 0.86299 h 0.529166 v -0.86299 c 5.29e-4,-0.14613 -0.117424,-0.26505 -0.263549,-0.26562 z"
         sodipodi:nodetypes="sccccssccccs" />
      <path
         style="color:#000000;fill:#d0e2ee;stroke-width:0.79488;stroke-linecap:round;stroke-linejoin:round;-inkscape-stroke:none"
         d="m -52.056641,406.83008 c -0.43525,0 -0.792968,0.35771 -0.792968,0.79297 v 7.4082 c 0,0.43526 0.357719,0.79492 0.792968,0.79492 h 6.615235 c 0.289119,0 0.529297,-0.24018 0.529297,-0.5293 v -1.32421 c 0,-0.28912 -0.240178,-0.5293 -0.529297,-0.5293 h -5.027344 c -0.149256,0 -0.263672,-0.11441 -0.263672,-0.26367 v -3.70508 c 0,-0.14926 0.114416,-0.26367 0.263672,-0.26367 h 5.027344 c 0.289119,0 0.529297,-0.24018 0.529297,-0.5293 v -1.32227 c 0,-0.28911 -0.240178,-0.52929 -0.529297,-0.52929 z"
         id="path1111919" />
      <path
         id="path4890"
         style="color:#000000;fill:#a3b9c9;stroke-width:0.79488;stroke-linecap:round;stroke-linejoin:round;-inkscape-stroke:none"
         d="m -52.585939,416.3555 v 0.52917 h 2.382801 v -0.52917 z m 0,1.05678 v 0.52917 h 2.382801 v -0.52917 z m 0,1.05834 v 0.52916 h 2.382801 v -0.52916 z m 0,1.05885 v 0.52917 h 2.382801 v -0.52917 z m 0,1.05833 v 0.52917 h 2.382801 v -0.52917 z" />
      <path
         style="color:#000000;fill:#c8dae5;stroke-width:0.79488;stroke-linecap:round;stroke-linejoin:round;-inkscape-stroke:none"
         d="m -49.410156,417.67773 a 0.2645835,0.2645835 0 0 0 -0.263672,0.26368 0.2645835,0.2645835 0 0 0 0.263672,0.26562 h 2.646484 a 0.2645835,0.2645835 0 0 0 0.263672,-0.26562 0.2645835,0.2645835 0 0 0 -0.263672,-0.26368 z"
         id="path4904" />
      <path
         style="color:#000000;fill:#66342d;stroke-width:0.79488;stroke-linecap:round;stroke-linejoin:round;-inkscape-stroke:none"
         d="m -54.171875,419.66211 a 0.2645835,0.2645835 0 0 0 -0.265625,0.26367 v 0.26563 a 0.2645835,0.2645835 0 0 0 0.265625,0.26367 0.2645835,0.2645835 0 0 0 0.263672,-0.26367 v -0.26563 a 0.2645835,0.2645835 0 0 0 -0.263672,-0.26367 z"
         id="path4906" />
      <path
         style="color:#000000;fill:#d0e2ee;stroke-width:0.79488;stroke-linecap:round;stroke-linejoin:round;-inkscape-stroke:none"
         d="m -54.019531,410.97461 -4.275391,2.46875 c -0.2321,0.134 -0.374999,0.38238 -0.375,0.65039 v 2.26172 c 4e-6,0.28911 0.240182,0.5293 0.529297,0.5293 h 4.232422 c 0.289114,0 0.529293,-0.24019 0.529297,-0.5293 v -5.01172 c -1.5e-5,-0.31584 -0.367097,-0.52706 -0.640625,-0.36914 z"
         id="path1111953" />
      <path
         id="path1228813"
         style="color:#000000;fill:#9ebed1;fill-opacity:1;stroke-width:0.79488;stroke-linecap:round;stroke-linejoin:round;-inkscape-stroke:none"
         d="m -53.831341,410.92121 c -0.06396,0.002 -0.128267,0.0187 -0.188102,0.0532 l -4.275707,2.4691 c -0.2321,0.13401 -0.374655,0.38208 -0.374655,0.65009 v 0.54261 l 3.592028,-2.0743 c 0.273529,-0.15791 0.640773,0.0537 0.640789,0.36949 v 3.95325 h 0.528648 c 0.289116,0 0.52968,-0.24006 0.529686,-0.52917 v -5.01158 c -1.4e-5,-0.24675 -0.224237,-0.4298 -0.452687,-0.42271 z" />
      <path
         style="color:#000000;fill:#70c2ef;fill-opacity:1;stroke-width:0.79488;stroke-linecap:round;stroke-linejoin:round;-inkscape-stroke:none"
         d="m -53.908203,411.52344 v 4.83203 h -4.232422 v -2.26172 c 0,-0.0798 0.04026,-0.15346 0.109375,-0.19336 z"
         id="path1112077" />
      <path
         id="path1230263"
         style="color:#000000;fill:#5aabdd;fill-opacity:1;stroke-width:0.79488;stroke-linecap:round;stroke-linejoin:round;-inkscape-stroke:none"
         d="m -53.90834,411.52324 -4.122745,2.37711 c -0.06912,0.0399 -0.109554,0.11348 -0.109554,0.19327 v 0.2372 l 3.062862,-1.76889 c 0.273529,-0.15791 0.640773,0.0537 0.640789,0.36949 v 3.42408 h 0.528648 z" />
      <path
         id="path4910"
         style="color:#000000;fill:#5aabdd;stroke-width:0.79488;stroke-linecap:round;stroke-linejoin:round;-inkscape-stroke:none"
         d="m -54.966673,412.13354 -0.529167,0.30489 v 0.74104 h -1.058849 v -0.13023 l -0.529167,0.30489 v 1.41336 h -1.056783 v 0.52916 h 1.056783 v 1.05885 h 0.529167 v -1.05885 h 1.058849 v 1.05885 h 0.529167 v -1.05885 h 1.058333 v -0.52916 h -1.058333 v -1.05834 h 1.058333 v -0.52968 h -1.058333 z m -1.588016,1.57561 h 1.058849 v 1.05834 h -1.058849 z" />
      <path
         id="path1232025"
         style="color:#000000;fill:#2a8dcb;fill-opacity:1;stroke-width:0.79488;stroke-linecap:round;stroke-linejoin:round;-inkscape-stroke:none"
         d="m -54.966673,412.13354 c -0.176246,0.10188 -0.352732,0.20334 -0.529167,0.30489 v 0.36483 l 0.418063,-0.24133 c 0.03581,-0.0207 0.07311,-0.0348 0.111104,-0.0434 z m -1.588016,0.9157 c -0.176302,0.10179 -0.352718,0.20339 -0.529167,0.30493 v 0.36639 l 0.936895,-0.54105 h -0.407728 z m 2.117701,0.13023 v 0.52968 h 0.528648 v -0.52968 z m 0,1.58802 v 0.52916 h 0.528648 v -0.52916 z"
         sodipodi:nodetypes="cccccccccccccccccccccc" />
      <path
         style="color:#000000;fill:#5aabdd;stroke-width:0.79488;stroke-linecap:round;stroke-linejoin:round;-inkscape-stroke:none"
         d="m -47.626953,410.54297 a 0.2645835,0.2645835 0 0 0 -0.160156,0.12305 l -0.265625,0.45898 a 0.2645835,0.2645835 0 0 0 0.09766,0.36133 0.2645835,0.2645835 0 0 0 0.361328,-0.0977 l 0.265625,-0.45703 a 0.2645835,0.2645835 0 0 0 -0.09766,-0.36133 0.2645835,0.2645835 0 0 0 -0.201172,-0.0273 z"
         id="path4920" />
      <path
         style="color:#000000;fill:#5aabdd;stroke-width:0.79488;stroke-linecap:round;stroke-linejoin:round;-inkscape-stroke:none"
         d="m -46.832031,410.80664 a 0.2645835,0.2645835 0 0 0 -0.16211,0.125 l -0.529296,0.91602 a 0.2645835,0.2645835 0 0 0 0.09766,0.36132 0.2645835,0.2645835 0 0 0 0.361328,-0.0976 l 0.529297,-0.91602 a 0.2645835,0.2645835 0 0 0 -0.09766,-0.36133 0.2645835,0.2645835 0 0 0 -0.199219,-0.0273 z"
         id="path4922" />
      <path
         style="color:#000000;fill:#3a4d5c;stroke-width:0.79488;stroke-linecap:round;stroke-linejoin:round;-inkscape-stroke:none"
         d="m -59.994141,420.03906 a 0.26460996,0.26460996 0 0 0 -0.263671,0.26563 v 1.60547 a 0.26460996,0.26460996 0 0 0 0.263671,0.26562 h 3.175782 a 0.26460996,0.26460996 0 0 0 0.263672,-0.26562 v -1.60547 a 0.26460996,0.26460996 0 0 0 -0.263672,-0.26563 z"
         id="path1111983" />
      <path
         id="path1183297"
         style="color:#000000;fill:#143441;fill-opacity:1;stroke-width:0.79488;stroke-linecap:round;stroke-linejoin:round;-inkscape-stroke:none"
         d="m -57.347404,420.039 a 0.26460996,0.26460996 0 0 1 0.263548,0.26561 v 1.60559 a 0.26460996,0.26460996 0 0 1 -0.263548,0.26562 h 0.529166 a 0.26460996,0.26460996 0 0 0 0.263549,-0.26562 v -1.60559 a 0.26460996,0.26460996 0 0 0 -0.263549,-0.26561 z" />
      <path
         style="color:#000000;fill:#9ccc65;fill-opacity:1;stroke-width:0.79488;stroke-linecap:round;stroke-linejoin:round;-inkscape-stroke:none"
         d="m -58.425894,418.77344 c -0.211685,0.004 -0.426609,0.0657 -0.600996,0.20516 -0.0929,0.0743 -0.170899,0.17368 -0.224792,0.2899 -0.221962,-0.0435 -0.46073,-0.001 -0.669727,0.10077 -0.325609,0.15901 -0.601514,0.50413 -0.601514,0.95498 v 0.14188 c -5.62e-4,0.14693 0.118689,0.26618 0.265618,0.26562 h 3.703132 c 0.146121,-5.8e-4 0.26411,-0.11949 0.263551,-0.26562 v -0.14188 c 0,-0.44969 -0.274904,-0.79347 -0.599448,-0.95291 -0.209724,-0.10303 -0.447944,-0.14625 -0.670242,-0.10284 -0.0544,-0.11622 -0.133443,-0.21558 -0.226343,-0.2899 -0.180012,-0.14402 -0.400802,-0.20516 -0.619083,-0.20516 -0.0068,0 -0.01333,-1.2e-4 -0.02016,0 z"
         id="path486251" />
      <path
         id="path1182315"
         style="color:#000000;fill:#74a838;fill-opacity:1;stroke-width:0.79488;stroke-linecap:round;stroke-linejoin:round;-inkscape-stroke:none"
         d="m -57.786653,419.50776 c 0.0929,0.0743 0.171942,0.17369 0.226343,0.28991 0.222298,-0.0434 0.460518,-2e-4 0.670243,0.10284 0.258704,0.12709 0.485886,0.37134 0.567407,0.69298 l 0.03204,-0.12713 v -0.14211 c 0,-0.44969 -0.274905,-0.79347 -0.599448,-0.95291 -0.209725,-0.10303 -0.447945,-0.14625 -0.670243,-0.10284 -0.0544,-0.11622 -0.133442,-0.21558 -0.226343,-0.2899 -0.180012,-0.14402 -0.400801,-0.20516 -0.625861,-0.20316 -0.225061,0.002 -0.439988,0.0637 -0.614375,0.20316 -0.0929,0.0743 -0.170899,0.17368 -0.224792,0.2899 -0.221962,-0.0435 -0.46073,-0.001 -0.669727,0.10077 -0.325609,0.15901 -0.601514,0.50413 -0.601514,0.95498 v 0.14211 l 0.03204,0.12713 c 0.08166,-0.32291 0.309729,-0.56821 0.569473,-0.69505 0.208997,-0.10177 0.447765,-0.14427 0.669727,-0.10077 0.05389,-0.11622 0.131892,-0.21561 0.224792,-0.28991 0.174387,-0.13946 0.389314,-0.20115 0.611076,-0.20515 0.228361,0 0.44915,0.0611 0.629162,0.20515 z"
         sodipodi:nodetypes="cccccsscscsccsccccscc" />
      <path
         style="color:#000000;fill:#143441;stroke-width:0.79488;stroke-linecap:round;stroke-linejoin:round;-inkscape-stroke:none"
         d="m -60.523437,420.32422 a 0.2645835,0.2645835 0 0 0 -0.263672,0.26367 0.2645835,0.2645835 0 0 0 0.263672,0.26563 h 4.234375 a 0.2645835,0.2645835 0 0 0 0.263671,-0.26563 0.2645835,0.2645835 0 0 0 -0.263671,-0.26367 z"
         id="path4854" />
      <path
         style="color:#000000;fill:#3a4d5c;stroke-width:0.79488;stroke-linecap:round;stroke-linejoin:round;-inkscape-stroke:none"
         d="m -48.351562,420.03906 a 0.26460996,0.26460996 0 0 0 -0.265625,0.26563 v 1.60547 a 0.26460996,0.26460996 0 0 0 0.265625,0.26562 h 3.173828 a 0.26460996,0.26460996 0 0 0 0.265625,-0.26562 v -1.60547 a 0.26460996,0.26460996 0 0 0 -0.265625,-0.26563 z"
         id="path1111995" />
      <path
         id="path1184591"
         style="color:#000000;fill:#143441;fill-opacity:1;stroke-width:0.79488;stroke-linecap:round;stroke-linejoin:round;-inkscape-stroke:none"
         d="m -45.706772,420.039 a 0.26460996,0.26460996 0 0 1 0.265618,0.26561 v 1.60559 a 0.26460996,0.26460996 0 0 1 -0.265618,0.26562 h 0.529167 a 0.26460996,0.26460996 0 0 0 0.265618,-0.26562 v -1.60559 a 0.26460996,0.26460996 0 0 0 -0.265618,-0.26561 z" />
      <path
         style="color:#000000;fill:#9ccc65;fill-opacity:1;stroke-width:0.79488;stroke-linecap:round;stroke-linejoin:round;-inkscape-stroke:none"
         d="m -46.784208,418.77303 c -0.211685,0.004 -0.426609,0.0657 -0.600996,0.20516 -0.0929,0.0743 -0.170899,0.17368 -0.224792,0.2899 -0.221962,-0.0435 -0.46073,-10e-4 -0.669727,0.10077 -0.325609,0.15901 -0.601514,0.50413 -0.601514,0.95498 v 0.14188 c -5.62e-4,0.14693 0.118689,0.26618 0.265618,0.26562 h 3.703132 c 0.146121,-5.8e-4 0.26411,-0.11949 0.263551,-0.26562 v -0.14188 c 0,-0.44969 -0.274904,-0.79347 -0.599448,-0.95291 -0.209724,-0.10303 -0.447944,-0.14625 -0.670242,-0.10284 -0.0544,-0.11622 -0.133443,-0.21558 -0.226343,-0.2899 -0.180012,-0.14402 -0.400802,-0.20516 -0.619083,-0.20516 -0.0068,0 -0.01333,-1.2e-4 -0.02016,0 z"
         id="path494830" />
      <path
         id="path1211715"
         style="color:#000000;fill:#74a838;fill-opacity:1;stroke-width:0.79488;stroke-linecap:round;stroke-linejoin:round;-inkscape-stroke:none"
         d="m -47.385204,418.9786 c -0.0929,0.0743 -0.170899,0.17368 -0.224792,0.2899 -0.221962,-0.0435 -0.46073,-0.001 -0.669727,0.10077 -0.325609,0.15901 -0.601514,0.50413 -0.601514,0.95498 v 0.14211 c -1.75e-4,0.0462 0.01142,0.0893 0.03204,0.12713 0.08166,-0.32291 0.309729,-0.56821 0.569473,-0.69505 0.208997,-0.10177 0.447765,-0.14427 0.669727,-0.10077 0.05389,-0.11622 0.131892,-0.21561 0.224792,-0.28991 0.174387,-0.13946 0.389314,-0.20115 0.614375,-0.20315 0.225062,-0.002 0.445852,0.0591 0.625864,0.20315 0.0929,0.0743 0.171942,0.17369 0.226343,0.28991 0.222297,-0.0434 0.460518,-2e-4 0.670242,0.10284 0.258705,0.12709 0.485886,0.37134 0.567407,0.69298 0.02057,-0.0378 0.03222,-0.081 0.03204,-0.12713 v -0.14211 c 0,-0.44969 -0.274904,-0.79347 -0.599448,-0.95291 -0.209724,-0.10303 -0.447945,-0.14625 -0.670242,-0.10284 -0.0544,-0.11622 -0.133443,-0.21558 -0.226343,-0.2899 -0.180012,-0.14402 -0.400802,-0.20516 -0.625862,-0.20316 -0.225061,0.002 -0.439988,0.0637 -0.614375,0.20316 z"
         sodipodi:nodetypes="sccsccccsccccccsscscs" />
      <path
         style="color:#000000;fill:#143441;stroke-width:0.79488;stroke-linecap:round;stroke-linejoin:round;-inkscape-stroke:none"
         d="m -48.880859,420.32227 a 0.2645835,0.2645835 0 0 0 -0.265625,0.26562 0.2645835,0.2645835 0 0 0 0.265625,0.26367 h 4.232422 a 0.2645835,0.2645835 0 0 0 0.265625,-0.26367 0.2645835,0.2645835 0 0 0 -0.265625,-0.26562 z"
         id="path494832" />
      <path
         style="color:#000000;fill:#3a4d5c;stroke-width:0.79488;stroke-linecap:round;stroke-linejoin:round;-inkscape-stroke:none"
         d="m -60.523437,421.64648 a 0.2645835,0.2645835 0 0 0 -0.263672,0.26368 0.2645835,0.2645835 0 0 0 0.263672,0.26562 h 15.875 a 0.2645835,0.2645835 0 0 0 0.265625,-0.26562 0.2645835,0.2645835 0 0 0 -0.265625,-0.26368 z"
         id="path4846" />
      <path
         id="path1206342"
         style="color:#000000;fill:#9ebed1;fill-opacity:1;stroke-width:0.79488;stroke-linecap:round;stroke-linejoin:round;-inkscape-stroke:none"
         d="m -44.911949,415.29668 v -1.32395 c 0,-0.32909 -0.238097,-0.52994 -0.529187,-0.52994 -1.675867,0 -3.351735,0 -5.027602,0 -0.149254,0 -0.263549,-0.11481 -0.263549,-0.26407 v -3.70468 c 0,-0.14926 0.114295,-0.26407 0.263549,-0.26407 l -0.529185,7.5e-4 c -0.149254,0 -0.263549,0.1148 -0.263549,0.26406 v 4.23386 c 0,0.14926 0.114295,0.26406 0.263549,0.26406 h 5.027602 c 0.289118,0 0.529167,0.24005 0.529167,0.52917 v 1.32421 c 0.332361,0 0.529205,-0.23044 0.529205,-0.5294 z"
         sodipodi:nodetypes="ccccssccssssscc" />
      <path
         style="color:#000000;fill:#9ebed1;fill-opacity:1;stroke-width:0.79488;stroke-linecap:round;stroke-linejoin:round;-inkscape-stroke:none"
         d="m -52.056772,406.82999 c -0.355682,0 -0.659382,0.23892 -0.758611,0.56379 0.07279,-0.0223 0.149728,-0.0346 0.229444,-0.0346 h 6.615618 c 0.289118,0 0.529167,0.24006 0.529167,0.52917 v 1.3224 c 0.289118,0 0.529167,-0.24005 0.529167,-0.52917 v -1.3224 c 0,-0.28911 -0.240049,-0.52916 -0.529167,-0.52916 z"
         id="path1194288" />
      <path
         id="path1263710"
         style="color:#000000;fill:#2a8dcb;fill-opacity:1;stroke-width:0.79488;stroke-linecap:round;stroke-linejoin:round;-inkscape-stroke:none"
         d="m -48.351571,415.82633 v 0.52917 h 0.529167 v -0.52917 z" />
    </g>
  </g>
</svg>
